<svg width="309" height="454" viewBox="0 0 309 454" fill="none" xmlns="http://www.w3.org/2000/svg">
<path d="M0 80.2535C0 64.7954 12.5313 52.2642 27.9893 52.2642H266.012C279.143 52.2642 289.971 62.5549 290.639 75.6694L308.208 420.757C308.731 431.02 300.652 439.676 290.378 439.863L17.5743 444.821C7.92041 444.997 0 437.219 0 427.563V80.2535Z" fill="#379FA7"/>
<path opacity="0.6" d="M57.4453 438.955H57.4368L26.9116 438.56C16.7045 438.428 8.40088 430.016 8.40088 419.809V373.722C8.40088 373.361 8.69274 373.07 9.0526 373.07C9.41246 373.07 9.70432 373.361 9.70432 373.722V419.809C9.70432 429.307 17.4309 437.134 26.9286 437.257L57.4533 437.652C57.8132 437.656 58.1012 437.952 58.0967 438.312C58.092 438.669 57.8012 438.955 57.4453 438.955Z" fill="white"/>
<path opacity="0.6" d="M9.05211 360.097C8.69225 360.097 8.40039 359.806 8.40039 359.446V351.982C8.40039 351.622 8.69225 351.33 9.05211 351.33C9.41197 351.33 9.70384 351.622 9.70384 351.982V359.446C9.70384 359.806 9.41214 360.097 9.05211 360.097Z" fill="white"/>
<path d="M19.5001 57.5759C19.4711 52.6302 23.8205 48.8024 28.7213 49.467C61.2254 53.8749 172.999 67.5076 265.411 60.4136C269.626 60.0902 273.283 63.2832 273.507 67.5041L291.93 414.13C292.182 418.883 288.553 422.947 283.802 423.228C244.935 425.529 84.8681 434.42 27.7747 428.44C24.2999 428.076 21.6623 425.151 21.6418 421.657L19.5001 57.5759Z" fill="#A6C8C6"/>
<path opacity="0.6" d="M23.3288 66.262C23.3007 61.5027 27.4863 57.819 32.2028 58.4586C63.4828 62.7005 171.047 75.8198 259.98 68.9929C264.036 68.6816 267.555 71.7545 267.771 75.8163L285.5 409.39C285.743 413.964 282.25 417.875 277.678 418.146C240.275 420.359 86.2355 428.916 31.2919 423.161C27.9479 422.811 25.4096 419.995 25.3898 416.633L23.3288 66.262Z" fill="white"/>
<g opacity="0.6">
<path d="M249.597 98.2055C250.019 98.2055 250.352 97.8607 250.338 97.4394L250.226 94.1736C250.212 93.7523 249.855 93.4021 249.433 93.3957L143.811 91.7899C143.389 91.7835 143.176 92.0971 143.337 92.4869L145.405 97.497C145.566 97.8868 146.043 98.2057 146.465 98.2057H249.597V98.2055Z" fill="white"/>
</g>
<g opacity="0.6">
<path d="M143.811 105.122C143.389 105.116 143.176 105.429 143.337 105.819L145.405 110.829C145.566 111.219 146.043 111.538 146.464 111.538H249.597C250.019 111.538 250.352 111.193 250.338 110.772L250.226 107.506C250.212 107.084 249.855 106.734 249.433 106.728L143.811 105.122Z" fill="white"/>
</g>
<g opacity="0.6">
<path d="M143.811 118.648C143.389 118.641 143.176 118.955 143.337 119.345L145.405 124.355C145.566 124.744 146.043 125.063 146.464 125.063H249.597C250.019 125.063 250.352 124.719 250.338 124.297L250.226 121.031C250.212 120.61 249.855 120.26 249.433 120.254L143.811 118.648Z" fill="white"/>
</g>
<g opacity="0.6">
<path d="M249.992 185.271C250.414 185.271 250.736 184.927 250.708 184.506L250.492 181.238C250.464 180.817 250.097 180.47 249.675 180.467L44.5176 178.85C44.0959 178.846 43.966 179.113 44.2286 179.443L48.3913 184.671C48.654 185.001 49.2138 185.271 49.6355 185.271H249.992Z" fill="white"/>
</g>
<g opacity="0.6">
<path d="M44.5176 192.182C44.0959 192.178 43.966 192.445 44.2286 192.775L48.3913 198.003C48.654 198.333 49.2138 198.603 49.6355 198.603H249.992C250.413 198.603 250.736 198.259 250.708 197.838L250.492 194.57C250.464 194.149 250.096 193.802 249.675 193.799L44.5176 192.182Z" fill="white"/>
</g>
<path d="M43.9298 219.478C48.7654 219.108 57.8207 218.936 62.8052 218.866C64.9174 218.837 66.7699 220.268 67.265 222.321C68.227 226.31 69.5542 233.234 69.3871 240.572C69.337 242.769 67.537 244.523 65.3393 244.499L46.9448 244.301C44.6828 244.277 42.8048 242.548 42.5943 240.295L40.9771 222.991C40.8099 221.201 42.1374 219.616 43.9298 219.478Z" fill="#F1F6F6"/>
<g opacity="0.6">
<path d="M75.9259 226.5C75.5045 226.482 75.2112 226.809 75.2738 227.226L76.32 234.192C76.3826 234.609 76.7789 234.95 77.2004 234.95H125.919C126.341 234.95 126.681 234.605 126.676 234.183L126.616 229.384C126.611 228.963 126.262 228.603 125.841 228.586L75.9259 226.5Z" fill="white"/>
</g>
<path opacity="0.6" d="M144.141 219.478C148.976 219.108 158.031 218.936 163.016 218.866C165.128 218.837 166.981 220.268 167.476 222.321C168.438 226.31 169.765 233.234 169.598 240.572C169.548 242.769 167.748 244.523 165.55 244.499L147.156 244.301C144.894 244.277 143.016 242.548 142.805 240.295L141.188 222.991C141.021 221.201 142.348 219.616 144.141 219.478Z" fill="white"/>
<g opacity="0.6">
<path d="M176.137 226.5C175.715 226.482 175.422 226.809 175.485 227.226L176.531 234.192C176.593 234.609 176.99 234.95 177.411 234.95H226.13C226.551 234.95 226.892 234.605 226.887 234.183L226.827 229.384C226.822 228.963 226.473 228.603 226.052 228.586L176.137 226.5Z" fill="white"/>
</g>
<path d="M64.777 288.135C64.7618 288.135 64.7461 288.135 64.7306 288.135L47.7569 287.972C45.3319 287.949 43.33 286.28 43.1003 284.092L41.6082 269.85C41.5207 269.014 41.7803 268.188 42.3391 267.523C42.9646 266.779 43.9114 266.312 44.9363 266.241C46.3662 266.144 48.3802 265.972 50.5121 265.79C55.0014 265.408 60.5887 264.933 63.7322 264.893C66.013 264.882 67.9478 266.232 68.4852 268.218C69.3695 271.487 69.2918 277.675 69.1236 284.268C69.0691 286.409 67.1236 288.135 64.777 288.135ZM45.0255 267.542C44.3516 267.588 43.7363 267.887 43.3372 268.362C43.0079 268.753 42.8543 269.233 42.9048 269.714L44.3969 283.956C44.5573 285.485 46.0074 286.652 47.7699 286.669L64.7434 286.832C64.7546 286.832 64.766 286.832 64.7775 286.832C66.4223 286.832 67.7842 285.673 67.8211 284.235C67.9867 277.742 68.0659 271.658 67.2274 268.558C66.8515 267.168 65.406 266.202 63.7491 266.196C60.6524 266.235 55.0914 266.709 50.6232 267.089C48.4853 267.271 46.466 267.443 45.0255 267.542Z" fill="white"/>
<path opacity="0.6" d="M46.8514 269.012C50.4173 268.768 58.1671 267.981 61.8429 267.935C63.4004 267.916 64.7664 268.857 65.1316 270.207C65.8409 272.83 65.747 278.059 65.6239 282.884C65.587 284.329 64.2596 285.483 62.6389 285.467L49.0747 285.337C47.4067 285.321 46.0218 284.184 45.8666 282.702L44.6741 271.322C44.5508 270.144 45.5298 269.102 46.8514 269.012Z" fill="white"/>
<g opacity="0.6">
<path d="M79.6854 278.679C80.1767 280.542 81.8694 281.835 83.7965 281.819L240.844 280.48C242.621 280.464 244.042 278.999 244.003 277.223C243.965 275.496 242.559 274.114 240.832 274.106L83.7798 273.39C81.0075 273.377 78.9783 275.998 79.6854 278.679Z" fill="white"/>
</g>
<path d="M47.574 271.245C48.8342 270.506 50.4557 270.947 51.1676 272.223L54.5156 278.224C54.8507 278.825 55.7273 278.787 56.0093 278.159L64.3132 259.672C64.7273 258.75 66.1008 259.062 66.0856 260.073C66.0007 265.728 64.5004 276.476 55.4652 285.474C55.4652 285.474 50.4862 283.538 46.4762 274.733C45.897 273.462 46.3688 271.952 47.574 271.245Z" fill="#2CA6AE"/>
<path d="M64.777 324.514C64.7618 324.514 64.7461 324.514 64.7306 324.514L47.7569 324.351C45.3319 324.328 43.33 322.659 43.1003 320.47L41.6082 306.229C41.5207 305.393 41.7803 304.567 42.3391 303.902C42.9646 303.158 43.9114 302.691 44.9363 302.62C46.3662 302.523 48.3802 302.351 50.5121 302.169C55.0014 301.787 60.5887 301.312 63.7322 301.272C63.7551 301.272 63.778 301.271 63.8005 301.271C66.0327 301.271 67.9531 302.631 68.4852 304.597C69.3695 307.866 69.2918 314.054 69.1236 320.647C69.0691 322.788 67.1236 324.514 64.777 324.514ZM45.0255 303.921C44.3516 303.967 43.7363 304.266 43.3372 304.74C43.0079 305.132 42.8543 305.612 42.9048 306.093L44.3969 320.334C44.5573 321.864 46.0074 323.031 47.7699 323.048L64.7434 323.211C64.7546 323.211 64.766 323.211 64.7775 323.211C66.4223 323.211 67.7842 322.052 67.8211 320.614C67.9867 314.121 68.0659 308.037 67.2274 304.937C66.8513 303.548 65.3853 302.549 63.7489 302.576C60.6525 302.614 55.0916 303.088 50.6234 303.468C48.4853 303.65 46.466 303.822 45.0255 303.921Z" fill="white"/>
<path opacity="0.6" d="M46.8514 305.391C50.4173 305.147 58.1671 304.36 61.8429 304.314C63.4004 304.295 64.7664 305.236 65.1316 306.586C65.8409 309.209 65.747 314.438 65.6239 319.263C65.587 320.708 64.2596 321.862 62.6389 321.846L49.0747 321.716C47.4067 321.7 46.0218 320.563 45.8666 319.081L44.6741 307.701C44.5508 306.524 45.5298 305.481 46.8514 305.391Z" fill="white"/>
<g opacity="0.6">
<path d="M79.6854 315.058C80.1767 316.921 81.8694 318.214 83.7965 318.197L240.844 316.858C242.621 316.843 244.042 315.378 244.003 313.602C243.965 311.875 242.559 310.493 240.832 310.485L83.7798 309.768C81.0075 309.756 78.9783 312.377 79.6854 315.058Z" fill="white"/>
</g>
<path d="M47.574 307.624C48.8342 306.884 50.4557 307.326 51.1676 308.601L54.5156 314.603C54.8507 315.204 55.7273 315.166 56.0093 314.538L64.3132 296.051C64.7273 295.129 66.1008 295.441 66.0856 296.452C66.0007 302.106 64.5004 312.855 55.4652 321.853C55.4652 321.853 50.4862 319.917 46.4762 311.112C45.897 309.84 46.3688 308.331 47.574 307.624Z" fill="#2CA6AE"/>
<path d="M64.777 360.893C64.7618 360.893 64.7461 360.893 64.7306 360.893L47.7569 360.73C45.3319 360.707 43.33 359.039 43.1003 356.85L41.6082 342.608C41.5207 341.772 41.7803 340.945 42.3395 340.28C42.9651 339.536 43.9114 339.069 44.9363 338.998C46.3662 338.901 48.3802 338.729 50.5121 338.548C55.0014 338.165 60.5887 337.69 63.7322 337.651C63.7551 337.651 63.778 337.65 63.8005 337.65C66.0327 337.65 67.9531 339.009 68.4852 340.975C69.3695 344.244 69.2918 350.433 69.1236 357.025C69.0691 359.167 67.1236 360.893 64.777 360.893ZM45.0255 340.299C44.3516 340.345 43.7363 340.644 43.3372 341.119C43.0079 341.51 42.8543 341.991 42.9048 342.472L44.3969 356.714C44.5573 358.244 46.0074 359.41 47.7696 359.427L64.7434 359.589C64.7546 359.589 64.766 359.589 64.7775 359.589C66.4223 359.589 67.7842 358.431 67.8211 356.992C67.9867 350.5 68.0659 344.416 67.2274 341.315C66.8513 339.926 65.3853 338.923 63.7489 338.954C60.6525 338.993 55.0916 339.466 50.6234 339.847C48.4853 340.029 46.466 340.201 45.0255 340.299Z" fill="white"/>
<path opacity="0.6" d="M46.8514 341.77C50.4173 341.526 58.1671 340.739 61.8429 340.693C63.4004 340.674 64.7664 341.615 65.1316 342.965C65.8409 345.588 65.747 350.817 65.6239 355.642C65.587 357.087 64.2596 358.241 62.6389 358.225L49.0747 358.095C47.4067 358.079 46.0218 356.941 45.8666 355.46L44.6741 344.079C44.5508 342.902 45.5298 341.86 46.8514 341.77Z" fill="white"/>
<g opacity="0.6">
<path d="M79.6854 351.437C80.1767 353.3 81.8694 354.593 83.7965 354.576L240.844 353.237C242.621 353.222 244.042 351.757 244.003 349.981C243.965 348.254 242.559 346.872 240.832 346.864L83.7798 346.147C81.0075 346.135 78.9783 348.756 79.6854 351.437Z" fill="white"/>
</g>
<path d="M64.777 397.272C64.7618 397.272 64.7461 397.272 64.7306 397.272L47.7569 397.109C45.3319 397.086 43.33 395.418 43.1003 393.229L41.6082 378.987C41.5207 378.151 41.7803 377.324 42.3395 376.659C42.9651 375.915 43.9114 375.448 44.9363 375.378C46.3662 375.28 48.3802 375.108 50.5121 374.927C55.0014 374.544 60.5887 374.069 63.7322 374.03C63.7551 374.03 63.778 374.029 63.8005 374.029C66.0327 374.029 67.9531 375.388 68.4852 377.354C69.3695 380.623 69.2918 386.812 69.1236 393.405C69.0691 395.546 67.1236 397.272 64.777 397.272ZM45.0255 376.678C44.3516 376.724 43.7363 377.023 43.3372 377.498C43.0079 377.889 42.8543 378.37 42.9048 378.851L44.3969 393.093C44.5573 394.623 46.0074 395.789 47.7696 395.806L64.7434 395.968C64.7546 395.968 64.766 395.968 64.7775 395.968C66.4223 395.968 67.7842 394.81 67.8211 393.371C67.9867 386.879 68.0659 380.795 67.2274 377.694C66.8513 376.306 65.3853 375.297 63.7489 375.333C60.6525 375.372 55.0916 375.845 50.6234 376.226C48.4853 376.408 46.466 376.58 45.0255 376.678Z" fill="white"/>
<path opacity="0.6" d="M46.8514 378.148C50.4173 377.905 58.1671 377.118 61.8429 377.072C63.4004 377.053 64.7664 377.994 65.1316 379.344C65.8409 381.967 65.747 387.195 65.6239 392.021C65.587 393.466 64.2596 394.62 62.6389 394.604L49.0747 394.474C47.4067 394.458 46.0218 393.32 45.8666 391.839L44.6741 380.458C44.5508 379.281 45.5298 378.239 46.8514 378.148Z" fill="white"/>
<g opacity="0.6">
<path d="M79.6854 387.816C80.1767 389.679 81.8694 390.972 83.7965 390.955L240.844 389.616C242.621 389.601 244.042 388.136 244.003 386.36C243.965 384.633 242.559 383.25 240.832 383.243L83.7798 382.526C81.0075 382.513 78.9783 385.135 79.6854 387.816Z" fill="white"/>
</g>
<path d="M47.574 380.382C48.8342 379.642 50.4557 380.083 51.1676 381.359L54.5156 387.361C54.8507 387.962 55.7273 387.923 56.0093 387.296L64.3132 368.809C64.7273 367.887 66.1008 368.199 66.0856 369.209C66.0007 374.864 64.5004 385.613 55.4652 394.61C55.4652 394.61 50.4862 392.675 46.4762 383.87C45.897 382.598 46.3688 381.089 47.574 380.382Z" fill="#2CA6AE"/>
<path d="M47.574 343.047C48.8342 342.307 50.4557 342.748 51.1676 344.024L54.5156 350.026C54.8507 350.627 55.7273 350.589 56.0093 349.961L64.3132 331.474C64.7273 330.552 66.1008 330.864 66.0856 331.874C66.0007 337.529 64.5004 348.278 55.4652 357.275C55.4652 357.275 50.4862 355.34 46.4762 346.535C45.897 345.263 46.3688 343.754 47.574 343.047Z" fill="#2CA6AE"/>
<path d="M115.394 141.261C129.995 126.659 129.995 102.986 115.394 88.3845C100.792 73.7831 77.1188 73.7831 62.5174 88.3844C47.9161 102.986 47.9161 126.659 62.5174 141.261C77.1188 155.862 100.792 155.862 115.394 141.261Z" fill="#48D8E3"/>
<path d="M110.362 104.491H97.9386V93.7893C97.9386 91.2769 95.9019 89.2402 93.3896 89.2402H84.2848C81.7725 89.2402 79.7358 91.2769 79.7358 93.7893V104.491H67.312C64.7996 104.491 62.7629 106.528 62.7629 109.04V119.621C62.7629 122.133 64.7996 124.17 67.312 124.17H79.7358V134.872C79.7358 137.384 81.7725 139.421 84.2848 139.421H93.3896C95.9019 139.421 97.9386 137.384 97.9386 134.872V124.17H110.362C112.875 124.17 114.911 122.133 114.911 119.621V109.04C114.911 106.528 112.875 104.491 110.362 104.491Z" fill="white"/>
<path d="M161.763 5.21343C153.165 -0.767855 145.689 -0.649406 140.427 0.903468C135.626 2.32002 132.514 6.95492 132.971 11.9393L135.241 36.7113L162.247 39.108C162.247 39.108 178.624 16.9436 161.763 5.21343ZM149.886 25.1983C146.167 25.1983 143.152 22.1835 143.152 18.4644C143.152 14.7452 146.167 11.7303 149.886 11.7303C153.605 11.7303 156.62 14.7452 156.62 18.4644C156.62 22.1835 153.605 25.1983 149.886 25.1983Z" fill="#356C70"/>
<path d="M137.938 26.2907C137.605 26.2907 137.321 26.0368 137.29 25.6981L136.929 21.753C136.896 21.3947 137.16 21.0778 137.518 21.0447C137.884 21.0104 138.194 21.2757 138.226 21.6346L138.588 25.5797C138.621 25.938 138.357 26.2549 137.998 26.288C137.978 26.29 137.958 26.2907 137.938 26.2907ZM137.23 18.5597C136.897 18.5597 136.613 18.3058 136.582 17.9672L136.307 14.9723C135.872 10.224 138.86 5.80294 143.411 4.45957C146.634 3.50813 149.956 3.37197 153.281 4.05426C153.634 4.1261 153.861 4.47109 153.789 4.8236C153.717 5.17561 153.375 5.40081 153.02 5.33081C149.904 4.69312 146.796 4.81976 143.78 5.70955C139.824 6.87734 137.227 10.7232 137.605 14.854L137.88 17.8489C137.913 18.2072 137.648 18.5241 137.29 18.5572C137.27 18.5591 137.25 18.5597 137.23 18.5597Z" fill="#BDD0FB"/>
<path d="M98.3816 52.7201V40.2655C98.3816 35.9663 101.945 32.5229 106.242 32.6701L192.111 35.6121C195.921 35.7426 199.008 38.7506 199.236 42.5568L199.953 54.5239L98.3816 52.7201Z" fill="#2E9198"/>
<path d="M130.4 37.3629H126.707C126.347 37.3629 126.055 37.0713 126.055 36.7113C126.055 36.3511 126.347 36.0596 126.707 36.0596H130.4C130.76 36.0596 131.052 36.3511 131.052 36.7113C131.052 37.0715 130.76 37.3629 130.4 37.3629Z" fill="#BDD0FB"/>
<path d="M103.029 48.8094C102.67 48.8094 102.378 48.5178 102.378 48.1576V43.1193C102.378 39.2263 105.545 36.0596 109.438 36.0596H123.014C123.374 36.0596 123.666 36.3511 123.666 36.7113C123.666 37.0715 123.374 37.3629 123.014 37.3629H109.438C106.263 37.3629 103.681 39.9454 103.681 43.1191V48.1575C103.681 48.5178 103.389 48.8094 103.029 48.8094Z" fill="#BDD0FB"/>
<path d="M65.3332 55.5453C65.5404 51.2325 69.0975 47.8422 73.4154 47.8421L223.573 47.8379C228.972 47.8377 233.588 51.7232 234.509 57.0434L234.636 57.7776C235.645 63.6049 231.159 68.9348 225.245 68.9348H71.1917C67.6524 68.9348 64.832 65.9755 65.0019 62.4404L65.3332 55.5453Z" fill="#2CA6AE"/>
<path d="M164.774 215.192C164.774 215.192 164.731 215.22 164.696 215.277L164.906 215.291C164.87 215.341 165.051 215.426 165.051 215.525V215.532L164.827 215.639C164.827 215.745 164.705 215.88 164.676 216.029L164.615 216.093C164.246 218.279 162.175 224.263 159.982 232.006C159.961 232.07 159.933 232.141 159.911 232.205C154.993 249.58 147.874 275.81 145.73 287.919C145.73 287.919 141.919 289.138 136.014 290.811H136C127.468 292.485 114.593 294.307 102.612 291.169C102.612 291.169 96.1742 238.58 103.975 193.041C103.975 193.041 124.438 187.919 146.526 186.528C146.639 186.521 146.753 186.306 146.866 186.299C148.648 186.199 150.436 185.927 152.225 185.927H153.645C153.843 185.927 154.035 185.927 154.234 185.927H154.269C155.185 185.927 156.839 186.85 158.769 187.666C158.826 187.688 158.939 187.787 158.939 187.815C158.939 187.815 158.954 187.798 158.961 187.798C158.961 187.798 159.294 188.022 159.443 188.086C159.663 188.178 159.891 188.309 160.125 188.423C160.174 188.451 160.231 188.492 160.281 188.513C160.302 188.527 160.33 188.54 160.352 188.554C160.501 188.633 160.657 188.714 160.82 188.792C160.856 188.806 160.884 188.822 160.912 188.836C161.097 188.928 161.282 189.028 161.473 189.128C161.502 189.142 161.353 189.156 161.381 189.178C161.601 189.291 161.885 189.412 162.112 189.533C162.318 189.639 162.474 189.753 162.488 189.874L162.517 189.689C162.623 189.746 162.737 189.81 162.843 189.874C162.85 189.874 162.864 189.881 162.871 189.888C164.05 190.577 165.235 191.379 166.335 192.316C166.342 192.323 166.342 192.33 166.349 192.337C166.364 192.358 166.385 192.387 166.399 192.408C171.347 200.627 173.646 214.092 164.774 215.192Z" fill="#1D5451"/>
<path d="M216.464 228.813C194.202 226.457 183.752 209.307 175.478 198.401C164.554 184.001 152.492 186.489 152.492 186.489L159.874 218.262C176.391 244.581 200.017 245.833 215.898 242.824C217.52 237.48 217.252 232.584 216.464 228.813Z" fill="#ACE6E4"/>
<path d="M249.902 223.86L241.802 225.836C231.932 228.809 223.594 229.568 216.464 228.813C217.252 232.585 217.52 237.48 215.898 242.824C226.008 240.91 232.981 237.269 232.981 237.269C251.572 231.856 249.902 223.86 249.902 223.86Z" fill="#ACE6E4"/>
<path d="M268.231 239.315C268.169 237.671 267.362 236.144 266.039 235.166L253.126 225.618C253.126 225.618 253.39 223.712 256.981 223.304C260.572 222.896 260.76 219.041 260.76 219.041C260.76 219.041 255.771 219.916 248.402 221.445C244.189 222.32 241.246 225.033 239.498 227.197L241.941 233.044C250.134 238.025 258.995 240.873 268.34 242.172L268.231 239.315Z" fill="#FFC99C"/>
<path d="M154.489 186.318C154.411 186.311 154.34 186.311 154.269 186.311C154.248 186.304 154.234 186.304 154.212 186.297L154.489 186.318Z" fill="url(#paint0_linear_139_177)"/>
<path d="M158.969 186.077L158.94 186.092V186.062C158.947 186.07 158.954 186.077 158.969 186.077Z" fill="url(#paint1_linear_139_177)"/>
<path d="M145.913 433.908C145.913 433.908 144.757 440.45 144.191 446.926C143.97 449.457 145.921 451.655 148.459 451.761C157.084 452.12 175.531 452.818 182.151 452.523C183.146 452.478 183.797 451.459 183.428 450.534C183.12 449.758 182.525 449.131 181.766 448.783L151.294 434.778L145.913 433.908Z" fill="#102021"/>
<path d="M144.966 430.064L145.895 437.889C145.895 437.889 151.233 440.374 154.878 437.576L152.668 428.855L144.966 430.064Z" fill="#FFC99C"/>
<path d="M145.664 282.944C145.263 284.987 143.511 384.922 154.194 429.706C154.368 430.437 153.998 431.19 153.302 431.474C151.664 432.144 148.452 433.113 144.602 433.242C143.41 433.282 142.341 432.508 142.005 431.363C138.952 420.973 124.32 368.913 122.411 319.181C120.278 263.611 122.411 317.289 122.411 317.289L123.662 282.939L145.664 282.944Z" fill="#1D5451"/>
<path d="M110.86 437.321C110.86 437.321 109.02 440.624 107.239 449.4C106.918 450.985 108.025 452.502 109.635 452.66C112.482 452.94 116.866 453.3 120.378 453.276C121.997 453.265 123.26 451.855 123.065 450.248C122.676 447.045 121.464 441.789 117.721 437.693L110.86 437.321Z" fill="#102021"/>
<path d="M109.244 427.256L111.414 439.089C111.414 439.089 113.559 440.685 117.802 439.528L116.767 426.796L109.244 427.256Z" fill="#FFC99C"/>
<path d="M103.383 286.01C94.6466 338.737 105.278 416.328 108.864 431.514C109.084 432.444 109.834 433.157 110.776 433.313C112.377 433.578 115.012 433.795 117.61 433.04C118.505 432.78 119.134 431.973 119.17 431.041C119.652 418.763 118.786 343.39 126.926 313.601C127.339 312.092 128.261 310.775 129.536 309.868L145.336 298.636L146.548 280.479L103.383 286.01Z" fill="#1D5451"/>
<path d="M114.025 218.33L103.982 192.978C103.982 192.978 79.5268 209.595 75.5049 230.663C80.1258 231.003 88.5343 232.205 96.7647 236.361C98.5733 226.413 114.025 218.33 114.025 218.33Z" fill="white"/>
<path d="M132.533 164.848L124.203 188.94C124.065 189.339 124.228 189.781 124.598 189.985C126.869 191.241 135.051 194.87 144.91 188.619C145.937 187.968 146.636 186.906 146.792 185.7L149.49 164.848L132.533 164.848Z" fill="#FFC99C"/>
<path d="M116.722 190.266L126.664 181.823L141.535 218.13L130.69 362.403L96.8308 363.416C96.5914 363.423 96.3597 363.331 96.1906 363.161C96.0215 362.991 95.9303 362.759 95.9385 362.52L100.666 223.721C100.666 223.721 100.795 193.729 103.983 192.978C107.17 192.228 116.722 190.266 116.722 190.266Z" fill="white"/>
<path d="M164.863 215.291L165.051 215.525V215.532L164.827 215.639L164.676 216.029L164.578 216.093L161.704 244.74C161.704 244.747 161.704 244.747 161.704 244.754L149.916 364.273C149.888 364.514 149.822 364.727 149.637 364.876C149.452 365.018 149.235 365.082 149.001 365.047L130.679 362.406L136.005 290.662L136.013 290.556L141.586 216.264L146.641 186.432V186.418L147.35 181.825L152.254 186.155L152.318 186.162L153.723 186.24L154.301 186.268C155.21 186.51 158.936 187.915 158.936 187.915C158.936 187.936 160.237 188.497 160.861 188.795C160.897 188.809 160.905 188.824 160.933 188.838C161.118 188.93 161.292 189.029 161.484 189.129C161.512 189.143 161.422 189.157 161.45 189.178C161.834 189.391 162.262 189.625 162.262 189.874V189.888L164.426 215.192L164.655 215.277L164.863 215.291Z" fill="#ACE6E4"/>
<path d="M147.756 217.836V221.367L160.588 220.583V216.659L147.756 217.836Z" fill="url(#paint2_linear_139_177)"/>
<path d="M140.732 226.409C140.688 226.409 140.642 226.398 140.601 226.376L129.175 220.239C129.097 220.198 129.043 220.122 129.031 220.035L127.457 209.444L123.235 208.694C123.132 208.676 123.048 208.601 123.018 208.501L118.609 194.18C118.563 194.033 118.646 193.877 118.793 193.832C118.944 193.785 119.098 193.869 119.142 194.016L123.5 208.174L127.753 208.93C127.87 208.95 127.962 209.044 127.979 209.163L129.562 219.815L140.864 225.884C141 225.957 141.051 226.126 140.978 226.262C140.928 226.355 140.831 226.409 140.732 226.409Z" fill="#93E4E6"/>
<path d="M143.447 222.9C143.412 222.9 143.376 222.892 143.344 222.873C143.243 222.815 143.208 222.688 143.265 222.588L149.272 212.058L148.279 206.099C148.264 206.011 148.307 205.923 148.387 205.88L153.243 203.296L152.015 186.171C152.007 186.056 152.093 185.956 152.209 185.948C152.324 185.935 152.424 186.026 152.432 186.142L153.67 203.402C153.676 203.484 153.633 203.562 153.56 203.601L148.716 206.179L149.697 212.063C149.704 212.111 149.695 212.16 149.672 212.201L143.629 222.795C143.591 222.862 143.52 222.9 143.447 222.9Z" fill="white"/>
<path d="M135.427 241.443C135.427 241.443 107.969 256.961 98.7046 243.711C96.781 240.959 96.3212 238.225 96.795 235.618C88.5645 231.462 80.1561 230.26 75.5352 229.92C74.3227 236.271 74.9637 243.026 78.6958 249.854C94.9242 279.54 139.06 248.213 139.06 248.213L135.427 241.443Z" fill="white"/>
<path d="M132.128 261.075L147.113 208.743C147.283 208.149 147.79 207.715 148.404 207.644C151.119 207.327 158.986 206.438 168.069 205.669C179.011 204.744 191.717 203.994 199.31 204.632C200.389 204.723 201.041 205.864 200.561 206.836C196.244 215.571 178.483 251.104 169.589 262.744C169.295 263.13 168.839 263.355 168.354 263.351L133.585 263.027C132.574 263.018 131.849 262.047 132.128 261.075Z" fill="#FFFDC3"/>
<path d="M169.624 201.133L180.489 199.322C181.067 199.226 181.541 199.779 181.357 200.336L180.282 203.595C180.188 203.878 179.941 204.084 179.645 204.123L169.19 205.52C168.649 205.592 168.203 205.101 168.327 204.569L168.993 201.724C169.064 201.418 169.313 201.184 169.624 201.133Z" fill="#F1E500"/>
<path d="M161.488 210.331L162.384 205.668C162.473 205.201 162.859 204.848 163.333 204.799L185.277 202.573C186.016 202.498 186.607 203.175 186.434 203.896L185.038 209.706C184.927 210.171 184.522 210.506 184.045 210.53L162.601 211.61C161.903 211.645 161.357 211.017 161.488 210.331Z" fill="#FFF872"/>
<path d="M135.748 248.431C135.748 248.431 133.661 239.848 134.503 236.802C135.345 233.757 136.976 229.842 142.414 230.712C147.852 231.582 154.267 233.873 154.267 233.873C154.267 233.873 153.943 237.839 149.81 236.559L152.373 238.542C152.373 238.542 152.006 241.719 148.516 240.022L150.899 242.652C150.899 242.652 149.4 245.26 146.832 243.587C144.263 241.914 143.032 249.465 135.748 248.431Z" fill="#FFC99C"/>
<path d="M109.581 249.074C107.042 249.074 104.713 248.699 102.942 247.727C102.806 247.652 102.757 247.483 102.831 247.348C102.905 247.212 103.076 247.164 103.21 247.237C110.558 251.271 128.649 244.381 128.831 244.311C128.877 244.295 132.416 243.067 133.684 240.59C133.754 240.453 133.924 240.399 134.059 240.469C134.196 240.539 134.251 240.708 134.18 240.844C132.809 243.524 129.175 244.783 129.021 244.835C128.452 245.054 117.894 249.074 109.581 249.074Z" fill="#93E4E6"/>
<path d="M99.6764 262.898C99.5265 262.898 99.4029 262.779 99.3974 262.629C99.3925 262.475 99.5128 262.346 99.6665 262.34C120.531 261.622 132.433 252.059 132.551 251.963C132.67 251.865 132.846 251.883 132.944 252.002C133.042 252.121 133.024 252.297 132.905 252.394C132.786 252.492 120.751 262.173 99.6861 262.898C99.6829 262.898 99.6797 262.898 99.6764 262.898Z" fill="#93E4E6"/>
<path d="M154.529 142.011C154.529 142.011 158.549 156.623 157.917 163.9C157.286 171.177 158.172 176.084 149.616 176.344C141.06 176.603 134.623 171.438 131.842 163.701C131.842 163.701 127.459 151.766 129.448 147.419C131.436 143.073 154.529 142.011 154.529 142.011Z" fill="#FFC99C"/>
<path d="M120.434 142.823C122.256 141.689 123.441 142.08 124.135 142.653C124.331 142.814 124.571 142.818 124.764 142.724C124.783 142.508 126.166 127.572 146.527 130.199C148.642 130.472 150.714 129.438 151.767 127.584C154.175 123.344 158.741 117.111 162.19 123.201C167.095 131.864 168.55 143.232 154.657 145.588C153.835 145.728 153.005 145.839 152.172 145.928C146.436 147.342 139.903 147.787 137.482 148.398C133.437 149.418 136.528 158.828 136.528 158.828L135.472 158.677L133.223 158.355C132.896 158.309 132.579 158.678 132.552 159.007L132.03 165.436C132.007 165.714 131.789 165.964 131.512 165.994C130.484 166.106 127.816 166.005 123.715 162.996C119.705 160.054 121.629 158.561 122.857 157.99C123.206 157.828 123.274 157.372 123.014 157.089C117.54 151.127 117.265 144.797 120.434 142.823Z" fill="#FCF066"/>
<path d="M135.505 160.296C135.505 160.296 134.479 151.183 130.187 153.082C125.895 154.982 130.822 163.22 133.942 164.002L135.505 160.296Z" fill="#FFC99C"/>
<path d="M158.264 142.831C158.194 142.821 158.129 142.786 158.081 142.726C157.984 142.604 158.005 142.426 158.128 142.329C161.054 140.014 162.662 137.337 162.905 134.373C163.329 129.219 159.449 124.883 159.409 124.84C159.304 124.723 159.313 124.545 159.428 124.439C159.545 124.334 159.724 124.343 159.828 124.458C159.996 124.642 163.912 129.013 163.471 134.415C163.215 137.544 161.535 140.355 158.479 142.773C158.416 142.824 158.338 142.842 158.264 142.831Z" fill="white"/>
<defs>
<linearGradient id="paint0_linear_139_177" x1="154.213" y1="186.307" x2="154.489" y2="186.307" gradientUnits="userSpaceOnUse">
<stop stop-color="#09005D"/>
<stop offset="1" stop-color="#1A0F91"/>
</linearGradient>
<linearGradient id="paint1_linear_139_177" x1="158.921" y1="186.121" x2="158.887" y2="186.174" gradientUnits="userSpaceOnUse">
<stop stop-color="#53EAC9"/>
<stop offset="0.9964" stop-color="#45AED8"/>
</linearGradient>
<linearGradient id="paint2_linear_139_177" x1="145.956" y1="225.122" x2="191.456" y2="192.377" gradientUnits="userSpaceOnUse">
<stop stop-color="#9CFFFB"/>
<stop offset="1" stop-color="#9BFFFA"/>
</linearGradient>
</defs>
</svg>
