<svg width="264" height="282" viewBox="0 0 264 282" fill="none" xmlns="http://www.w3.org/2000/svg">
<mask id="mask0_74_280" style="mask-type:alpha" maskUnits="userSpaceOnUse" x="0" y="0" width="264" height="282">
<rect width="264" height="282" fill="#D9D9D9"/>
</mask>
<g mask="url(#mask0_74_280)">
<path d="M149.175 20.363C170.492 19.1716 183.002 40.0216 170.621 53.2883C158.239 66.555 167.046 73.0596 172.021 75.4747C166.579 91.1564 123.012 93.3139 113.754 80.0794C105.994 68.9701 136.246 54.6891 128.985 42.5655C121.724 30.4419 132.575 19.9766 149.159 20.363L149.175 20.363Z" fill="#263238"/>
<path d="M20.3236 114.419L23.3183 117.784C24.4453 119.056 26.1197 119.7 27.7942 119.523L35.6673 118.686C38.8229 118.348 41.6083 116.512 43.154 113.743L44.12 112.036C39.5475 106.095 30.2254 103.068 30.2254 103.068L27.6654 101.909C25.3792 100.879 22.8353 101.764 21.8049 103.954L19.4381 108.993C18.617 110.732 18.9712 112.89 20.3236 114.403L20.3236 114.419Z" fill="#FFB573"/>
<path d="M121.015 113.647C119.293 115.579 117.731 117.253 116.072 118.992C114.43 120.715 112.772 122.421 111.097 124.096C107.733 127.461 104.351 130.793 100.809 134.03C93.6769 140.454 86.3351 146.749 77.3833 152.143L77.3028 152.191C77.0935 152.32 76.8681 152.432 76.6588 152.545C74.1632 153.769 71.3779 154.219 69.1238 154.123C66.8537 154.026 64.9699 153.559 63.376 153.028C60.2042 151.917 57.934 150.516 55.8571 149.116C51.7998 146.282 48.6441 143.287 45.6333 140.244C42.6387 137.217 39.8855 134.126 37.2611 130.971C34.5885 127.783 32.1251 124.74 29.5491 121.246L45.4884 109.911C47.4849 112.713 49.8194 115.772 52.1218 118.573C54.4724 121.375 56.9036 124.096 59.3831 126.575C61.8625 129.022 64.4869 131.293 66.8536 132.854C67.9968 133.611 69.1399 134.175 69.6551 134.303C69.8966 134.384 69.9449 134.336 69.6068 134.303C69.2848 134.271 68.4637 134.336 67.7231 134.706L66.9985 135.108C70.2991 132.967 73.5997 130.423 76.852 127.702C80.1042 124.965 83.2599 121.97 86.3351 118.895C89.4103 115.804 92.4372 112.6 95.3674 109.316C96.8326 107.673 98.2655 105.999 99.6823 104.308C101.083 102.65 102.532 100.879 103.772 99.3011L121.048 113.679L121.015 113.647Z" fill="#0BAB7C"/>
<path opacity="0.7" d="M121.015 113.647C119.293 115.579 117.731 117.253 116.072 118.992C114.43 120.715 112.772 122.421 111.097 124.096C107.733 127.461 104.351 130.793 100.809 134.03C93.6769 140.454 86.3351 146.749 77.3833 152.143L77.3028 152.191C77.0935 152.32 76.8681 152.432 76.6588 152.545C74.1632 153.769 71.3779 154.219 69.1238 154.123C66.8537 154.026 64.9699 153.559 63.376 153.028C60.2042 151.917 57.934 150.516 55.8571 149.116C51.7998 146.282 48.6441 143.287 45.6333 140.244C42.6387 137.217 39.8855 134.126 37.2611 130.971C34.5885 127.783 32.1251 124.74 29.5491 121.246L45.4884 109.911C47.4849 112.713 49.8194 115.772 52.1218 118.573C54.4724 121.375 56.9036 124.096 59.3831 126.575C61.8625 129.022 64.4869 131.293 66.8536 132.854C67.9968 133.611 69.1399 134.175 69.6551 134.303C69.8966 134.384 69.9449 134.336 69.6068 134.303C69.2848 134.271 68.4637 134.336 67.7231 134.706L66.9985 135.108C70.2991 132.967 73.5997 130.423 76.852 127.702C80.1042 124.965 83.2599 121.97 86.3351 118.895C89.4103 115.804 92.4372 112.6 95.3674 109.316C96.8326 107.673 98.2655 105.999 99.6823 104.308C101.083 102.65 102.532 100.879 103.772 99.3011L121.048 113.679L121.015 113.647Z" fill="white"/>
<path d="M101.679 187.438C101.679 187.438 95.7861 266.588 98.1206 316.853C95.6251 364.043 92.0186 472.109 92.0186 472.109C92.2762 474.524 104.979 473.558 107.185 472.109C107.185 472.109 134.572 393.394 127.633 316.853C157.708 237.028 154.343 187.438 154.343 187.438L101.679 187.438V187.438Z" fill="#263238"/>
<path d="M117.473 187.438C117.473 187.438 140.835 276.779 150.125 320.653C159.866 366.732 173.036 441.519 170.444 472.125C173.02 473.655 182.245 473.735 187.446 472.125C187.446 472.125 207.523 367.054 182.197 322.698C191.052 213.553 162.104 187.438 162.104 187.438L117.473 187.438V187.438Z" fill="#263238"/>
<path d="M98.2656 116.304C98.0885 122.245 97.8309 129.764 98.6681 143.948C99.135 155.943 99.9561 167.761 101.695 187.435L162.12 187.435C160.912 170.417 162.893 151.016 173.744 112.713C176.256 103.842 170.653 95.309 161.685 94.3913C159.286 94.1498 156.758 93.9404 154.15 93.8277C144.023 93.3447 135.715 93.0066 126.715 93.8277C123.736 94.1015 120.645 94.4718 117.683 94.8904C107.024 96.3716 98.6037 105.662 98.2817 116.304L98.2656 116.304Z" fill="white"/>
<path d="M152.202 62.9274C149.819 71.7504 146.889 87.9312 152.62 93.824C152.62 93.824 144.264 92.5682 126.506 103.549C121.37 96.1746 125.185 93.824 125.185 93.824C135.2 91.4733 135.49 84.1638 134.298 77.305L152.218 62.9274L152.202 62.9274Z" fill="#FFB573"/>
<path d="M130.241 101.348C133.574 103.553 135.135 112.199 135.135 112.199C135.135 112.199 157.209 103.843 156.404 94.0702C154.327 92.9754 151.268 90.818 151.268 90.818C151.268 90.818 133.638 97.9665 130.225 101.348L130.241 101.348Z" fill="#278C93"/>
<path d="M124.686 100.396C124.686 100.396 122.448 104.147 121.048 110.008C112.176 102.666 122.481 93.7945 122.481 93.7945C122.481 93.7945 124.316 92.4904 127.761 93.0378C123.125 95.4851 124.686 100.396 124.686 100.396V100.396Z" fill="#278C93"/>
<path opacity="0.2" d="M144.908 68.8079L134.298 77.3089C134.588 78.935 134.781 80.5773 134.781 82.1712C138.581 81.6238 144.055 77.5021 144.747 73.5575C145.086 71.5932 145.15 69.7095 144.892 68.7918L144.908 68.8079Z" fill="black"/>
<path d="M159.737 45.2192C157.064 59.468 156.227 65.5539 148.096 72.3805C135.86 82.6686 119.051 77.2267 117.441 62.6881C115.992 49.6146 120.613 28.4909 135.313 23.7895C149.787 19.1526 162.426 30.9542 159.737 45.2192V45.2192Z" fill="#FFB573"/>
<path d="M149.433 26.704C145.086 38.2319 154.376 45.1067 156.436 55.0729C167.175 47.9404 167.948 18.1225 149.433 26.704Z" fill="#263238"/>
<path d="M151.606 45.9728C151.22 45.9728 150.817 45.8762 150.463 45.6991C149.867 45.3932 149.416 44.878 149.207 44.234C148.998 43.5899 149.046 42.9137 149.368 42.318C149.674 41.7223 150.189 41.2715 150.833 41.0622L158.368 38.6149C159.012 38.4056 159.688 38.4539 160.284 38.7759C160.88 39.0818 161.331 39.597 161.54 40.2411C161.975 41.5613 161.25 42.9942 159.914 43.4128L152.379 45.8601C152.121 45.9406 151.864 45.9889 151.606 45.9889L151.606 45.9728ZM159.141 39.275C158.964 39.275 158.787 39.3072 158.61 39.3555L151.075 41.8028C150.173 42.0926 149.674 43.0747 149.98 43.9603C150.125 44.395 150.431 44.7492 150.833 44.9585C151.236 45.1678 151.703 45.2 152.137 45.0712L159.672 42.6239C160.574 42.3341 161.073 41.352 160.767 40.4665C160.622 40.0318 160.316 39.6776 159.914 39.4683C159.672 39.3394 159.399 39.275 159.141 39.275V39.275Z" fill="white"/>
<path d="M137.164 47.585C136.987 48.7926 136.23 49.7264 135.457 49.662C134.685 49.5976 134.202 48.5833 134.379 47.3757C134.556 46.1682 135.312 45.2344 136.085 45.2988C136.858 45.3632 137.341 46.3775 137.164 47.585Z" fill="#263238"/>
<path d="M122.609 46.7346C122.432 47.9421 121.675 48.876 120.903 48.8116C120.13 48.7472 119.647 47.7328 119.824 46.5253C120.001 45.3178 120.758 44.384 121.531 44.4484C122.303 44.5128 122.786 45.5271 122.609 46.7346Z" fill="#263238"/>
<path d="M121.853 44.5297L119.132 43.4832C119.132 43.4832 120.259 45.85 121.853 44.5297Z" fill="#263238"/>
<path d="M126.377 49.0051C126.377 49.0051 123.624 54.0446 121.064 56.3952C122.416 57.9892 125.153 57.5061 125.153 57.5061L126.377 49.0051Z" fill="#ED893E"/>
<path d="M131.304 62.4632C130.676 62.5276 129.999 62.5437 129.291 62.4954C129.098 62.4954 128.969 62.3183 129.001 62.109C129.033 61.9158 129.194 61.7709 129.404 61.787C134.588 62.1734 137.534 58.6474 137.567 58.6152C137.695 58.4542 137.921 58.422 138.066 58.5508C138.211 58.6635 138.227 58.8889 138.098 59.0499C137.985 59.1948 135.602 62.0285 131.304 62.4793L131.304 62.4632Z" fill="#263238"/>
<path d="M161.347 57.331C159.463 60.0037 156.839 61.4366 154.569 61.6781C151.155 62.0645 150.302 58.0877 151.944 54.4973C153.442 51.2611 157 47.1717 160.091 48.4597C163.134 49.7316 163.488 54.2719 161.347 57.331V57.331Z" fill="#FFB573"/>
<path d="M159.576 62.2568C159.576 64.1728 158.014 65.7345 156.098 65.7345C154.182 65.7345 152.62 64.1728 152.62 62.2568C152.62 60.3409 154.182 58.7792 156.098 58.7792C158.014 58.7792 159.576 60.3409 159.576 62.2568Z" fill="white"/>
<path d="M141.656 40.5811C141.479 40.5811 141.286 40.5167 141.157 40.3718C139.128 38.1178 136.568 38.6008 136.536 38.6008C136.15 38.6813 135.796 38.4237 135.747 38.0373C135.699 37.6509 135.973 37.2806 136.359 37.2001C136.488 37.1679 139.708 36.556 142.22 39.3736C142.477 39.6473 142.429 40.0981 142.139 40.3718C141.994 40.5006 141.817 40.565 141.64 40.5811L141.656 40.5811Z" fill="#263238"/>
<path d="M118.52 39.6206C118.343 39.6528 118.165 39.6206 118.021 39.4918C117.715 39.2664 117.682 38.8156 117.924 38.4936C120.403 35.2896 123.624 35.3862 123.752 35.4023C124.139 35.4184 124.412 35.7565 124.364 36.143C124.316 36.5294 123.978 36.8353 123.591 36.8192C123.463 36.8192 120.967 36.7709 119.003 39.3147C118.874 39.4757 118.697 39.5723 118.52 39.6045L118.52 39.6206Z" fill="#263238"/>
<path d="M136.407 45.3994L133.687 44.3529C133.687 44.3529 134.814 46.7196 136.407 45.3994Z" fill="#263238"/>
<path d="M157.048 90.7976C150.318 95.3862 141.35 144.911 138.758 218.586C136.166 292.262 143.315 351.994 143.315 351.994C143.315 351.994 172.73 319.665 191.117 310.133C191.455 241.384 176.819 194.42 178.526 177.063C180.233 159.707 189.764 111.712 182.438 102.696C175.129 93.6796 157.048 90.7815 157.048 90.7815L157.048 90.7976Z" fill="#0BAB7C"/>
<path opacity="0.8" d="M157.048 90.7976C150.318 95.3862 141.35 144.911 138.758 218.586C136.166 292.262 143.315 351.994 143.315 351.994C143.315 351.994 172.73 319.665 191.117 310.133C191.455 241.384 176.819 194.42 178.526 177.063C180.233 159.707 189.764 111.712 182.438 102.696C175.129 93.6796 157.048 90.7815 157.048 90.7815L157.048 90.7976Z" fill="white"/>
<path d="M123.012 93.3244C115.187 104.933 97.8631 249.563 114.205 352.009C101.276 344.861 92.0026 325.122 92.0026 325.122C92.0026 325.122 90.7145 235.893 96.8488 187.431C95.5768 130.549 88.8147 92.0042 123.012 93.3244Z" fill="#0BAB7C"/>
<path opacity="0.8" d="M123.012 93.3244C115.187 104.933 97.8631 249.563 114.205 352.009C101.276 344.861 92.0026 325.122 92.0026 325.122C92.0026 325.122 90.7145 235.893 96.8488 187.431C95.5768 130.549 88.8147 92.0042 123.012 93.3244Z" fill="white"/>
<path d="M146.213 188.126C146.213 188.126 140.175 176.855 135.216 164.329C130.257 151.803 126.28 136.959 126.28 136.959C126.28 136.959 88.7503 135.542 81.7627 139.776C85.8522 155.683 103.595 194.115 103.595 194.115C103.595 194.115 131.98 193.616 146.213 188.126V188.126Z" fill="#E0E0E0"/>
<path d="M107.62 196.613L141.753 195.583C145.182 195.486 146.937 192.974 145.649 190.012L124.123 140.407C122.835 137.444 118.971 135.11 115.541 135.206L81.4083 136.237C77.9789 136.333 76.224 138.845 77.512 141.807L99.0382 191.413C100.326 194.375 104.19 196.71 107.62 196.613Z" fill="#FF7A46"/>
<path d="M105.8 198.627C102.274 198.627 98.3943 196.228 97.0741 193.185L75.5479 143.58C74.9039 142.083 74.9522 140.617 75.6767 139.474C76.4656 138.235 77.9629 137.51 79.8145 137.446L113.947 136.415C117.538 136.303 121.563 138.75 122.899 141.857L144.425 191.462C145.069 192.96 145.021 194.425 144.296 195.568C143.508 196.808 142.01 197.532 140.159 197.597L106.026 198.627C106.026 198.627 105.865 198.627 105.8 198.627V198.627ZM106.01 197.822L106.01 198.225L106.01 197.822L140.143 196.792C141.72 196.743 142.976 196.148 143.62 195.133C144.2 194.216 144.232 193.024 143.685 191.768L122.158 142.163C120.935 139.329 117.28 137.075 113.963 137.204L79.8306 138.235C78.2527 138.283 76.9969 138.879 76.3529 139.893C75.7733 140.811 75.7411 142.002 76.2885 143.258L97.8147 192.863C99.0383 195.697 102.693 197.919 106.01 197.822V197.822Z" fill="white"/>
<path d="M126.039 159.502L130.096 157.521C131.626 156.781 133.413 156.813 134.894 157.618L141.865 161.401C144.651 162.915 146.535 165.684 146.905 168.824L147.146 170.772C140.658 174.507 130.885 173.767 130.885 173.767L128.084 173.863C125.588 173.944 123.559 172.156 123.447 169.741L123.189 164.171C123.092 162.255 124.236 160.387 126.071 159.502L126.039 159.502Z" fill="#FFB573"/>
<path opacity="0.2" d="M169.848 121.618C168.479 143.74 168.415 163.994 174.324 167.391C181.247 160.581 180.748 151.049 169.848 121.618Z" fill="#0BAB7C"/>
<path d="M184.725 105.98C185.594 108.459 186.286 110.665 186.995 113C187.703 115.302 188.379 117.604 189.023 119.923C190.311 124.56 191.551 129.213 192.598 133.946C194.642 143.445 196.462 153.106 196.43 163.796C196.43 164.038 196.43 164.295 196.397 164.537L196.397 164.634C196.172 167.58 194.739 170.832 192.92 172.861C191.1 174.97 189.201 176.161 187.59 177.015C184.306 178.657 181.649 179.221 179.138 179.687C174.179 180.509 169.816 180.557 165.501 180.492C161.218 180.428 157.048 180.154 152.926 179.768C148.756 179.382 144.812 178.963 140.513 178.303L143.733 159.015C147.211 159.594 151.075 160.125 154.746 160.496C158.465 160.834 162.152 161.059 165.742 161.108C169.3 161.108 172.842 160.914 175.628 160.367C176.98 160.109 178.188 159.691 178.397 159.514C178.526 159.465 178.284 159.498 177.721 160.093C177.19 160.641 176.529 161.993 176.497 162.975L176.465 163.796C176.352 159.916 175.837 155.778 175.129 151.608C174.404 147.422 173.39 143.188 172.247 138.953C171.088 134.735 169.8 130.501 168.367 126.299C167.642 124.206 166.901 122.113 166.129 120.052C165.372 118.007 164.535 115.849 163.762 114.014L184.741 105.948L184.725 105.98Z" fill="#0BAB7C"/>
<path opacity="0.8" d="M184.725 105.98C185.594 108.459 186.286 110.665 186.995 113C187.703 115.302 188.379 117.604 189.023 119.923C190.311 124.56 191.551 129.213 192.598 133.946C194.642 143.445 196.462 153.106 196.43 163.796C196.43 164.038 196.43 164.295 196.397 164.537L196.397 164.634C196.172 167.58 194.739 170.832 192.92 172.861C191.1 174.97 189.201 176.161 187.59 177.015C184.306 178.657 181.649 179.221 179.138 179.687C174.179 180.509 169.816 180.557 165.501 180.492C161.218 180.428 157.048 180.154 152.926 179.768C148.756 179.382 144.812 178.963 140.513 178.303L143.733 159.015C147.211 159.594 151.075 160.125 154.746 160.496C158.465 160.834 162.152 161.059 165.742 161.108C169.3 161.108 172.842 160.914 175.628 160.367C176.98 160.109 178.188 159.691 178.397 159.514C178.526 159.465 178.284 159.498 177.721 160.093C177.19 160.641 176.529 161.993 176.497 162.975L176.465 163.796C176.352 159.916 175.837 155.778 175.129 151.608C174.404 147.422 173.39 143.188 172.247 138.953C171.088 134.735 169.8 130.501 168.367 126.299C167.642 124.206 166.901 122.113 166.129 120.052C165.372 118.007 164.535 115.849 163.762 114.014L184.741 105.948L184.725 105.98Z" fill="white"/>
<path d="M153.78 30.8267C146.518 38.088 113.963 26.3186 115.235 38.3939C110.212 27.0753 118.133 14.9839 138.211 15C162.764 15 158.207 26.3991 153.78 30.8267Z" fill="#263238"/>
</g>
</svg>
