<svg width="341" height="346" viewBox="0 0 341 346" fill="none" xmlns="http://www.w3.org/2000/svg">
<path fill-rule="evenodd" clip-rule="evenodd" d="M167.686 332.528C167.686 332.528 153.514 343.536 158.013 343.209C162.512 342.881 175.453 342.084 175.703 341.229C175.953 340.374 174.519 332.374 173.296 332.528C172.073 332.683 167.686 333.741 167.686 332.528Z" fill="#0F585D"/>
<path d="M191.483 18.9531C191.483 18.9531 203.51 26.922 202.751 46.193C202.251 58.8927 210.031 71.4376 216.623 81.7083C225.004 94.767 241.305 108.529 230.821 125.222C224.244 135.695 208.372 151.627 194.784 150.168C187.838 149.422 178.139 142.214 174.85 136.106C153.757 96.9343 154.583 41.0482 163.855 30.278C173.126 19.5074 191.483 18.9531 191.483 18.9531Z" fill="#F98C3E"/>
<path fill-rule="evenodd" clip-rule="evenodd" d="M175.693 264.498C175.693 264.498 175.693 317.953 173.177 333.01C173.048 333.783 172.459 334.404 171.687 334.535C170.981 334.655 170.018 334.628 168.866 334.118C168.287 333.861 167.903 333.294 167.825 332.665L160.716 265.435L175.693 264.498Z" fill="#FCDAB1"/>
<path fill-rule="evenodd" clip-rule="evenodd" d="M182.035 331.341L181.2 333.389L180.603 340.76C180.65 341.796 181.486 342.666 182.613 342.84C184.15 343.077 187.323 343.317 189.427 343.154C191.075 343.027 192.107 341.48 191.462 340.098L188.98 334.781C188.609 333.985 187.931 333.375 187.101 333.089L182.035 331.341Z" fill="#0F585D"/>
<path fill-rule="evenodd" clip-rule="evenodd" d="M179.438 264.498C179.438 264.498 179.438 318.659 182.015 333.368C182.1 333.851 182.439 334.256 182.906 334.405C183.655 334.644 184.916 334.788 186.511 334.002C186.925 333.798 187.216 333.397 187.272 332.938L194.416 265.435L179.438 264.498Z" fill="#FCDAB1"/>
<path d="M168.217 68.8657C174.851 66.2301 182.969 68.1663 189.635 71.6089C192.968 73.3302 195.904 75.4116 198.066 77.438C199.147 78.4511 200.028 79.444 200.667 80.3638C201.31 81.2893 201.689 82.1128 201.805 82.7896C201.908 83.3912 201.956 84.5522 201.944 86.2017C201.933 87.8376 201.864 89.9192 201.744 92.3384C201.505 97.1759 201.065 103.352 200.484 109.998C199.322 123.293 197.598 138.448 195.796 148.514L195.729 148.891L196.074 149.054C199.124 150.498 201.524 153.394 203.369 157.446C205.214 161.495 206.482 166.653 207.292 172.54C208.911 184.312 208.685 198.903 207.658 213.143C206.632 227.378 204.808 241.237 203.239 251.541C202.455 256.692 201.736 260.953 201.212 263.925C200.95 265.411 200.737 266.575 200.59 267.368C200.527 267.705 200.476 267.976 200.438 268.174H153.026C153.01 267.93 152.987 267.593 152.959 267.167C152.895 266.206 152.801 264.794 152.677 262.997C152.429 259.401 152.065 254.258 151.601 248.071C150.672 235.697 149.343 219.143 147.74 202.427L147.729 202.302L147.658 202.198L147.042 201.256C134.331 181.498 136.313 162.228 141.552 147.792C144.214 140.457 147.716 134.375 150.554 130.127C151.972 128.004 153.224 126.341 154.119 125.209C154.567 124.644 154.925 124.212 155.171 123.921C155.294 123.777 155.389 123.667 155.452 123.594C155.484 123.558 155.509 123.53 155.524 123.512C155.532 123.503 155.538 123.497 155.542 123.493C155.544 123.491 155.545 123.489 155.546 123.488L155.547 123.487L155.869 123.129L155.524 122.793C152.34 119.701 150.779 116.701 150.223 113.781C149.665 110.853 150.107 107.955 151.016 105.049C151.927 102.134 153.291 99.2605 154.558 96.353C155.816 93.4653 156.976 90.5509 157.414 87.6313C158.253 82.0469 160.962 77.3427 163.479 74.0229C164.736 72.3654 165.94 71.0588 166.828 70.1685C167.272 69.7237 167.637 69.3833 167.89 69.1548C168.016 69.0405 168.115 68.9541 168.181 68.897C168.194 68.8854 168.206 68.8749 168.217 68.8657Z" fill="#EDFF86" stroke="#E9E58E"/>
<path d="M168.094 54.8496V72.3954C168.094 73.8146 169.128 75.0225 170.532 75.2338C172.857 75.5836 176.452 75.8546 179.538 74.9264C180.96 74.4989 181.837 73.0756 181.552 71.6183L178.28 54.8496H168.094Z" fill="#FCDAB1"/>
<path d="M161.613 29.1536C161.613 29.1536 150.501 58.7853 164.622 62.3836C181.242 66.6184 186.846 44.6639 186.846 44.6639C186.846 44.6639 172.261 2.76272 161.613 29.1536Z" fill="#FCDAB1"/>
<path d="M157.109 26.6993C156.44 29.1337 158.627 31.3948 161.087 30.8291C163.564 30.2594 166.613 29.7452 169.252 29.848C187.077 30.5426 180.132 42.1173 180.132 43.9693C180.132 47.7571 183.855 41.9978 184.068 43.2749C184.531 46.053 182.364 54.4813 182.364 54.4813C182.364 54.4813 193.791 52.0718 197.495 46.5157C201.199 40.96 197.032 28.459 195.643 23.8291C194.254 19.199 184.994 14.569 179.901 15.0321C175.348 15.4459 160.802 13.2695 157.109 26.6993Z" fill="#F98C3E"/>
<path d="M181.753 46.5158C181.753 46.5158 183.142 39.5709 186.846 40.9601C190.55 42.3491 184.068 50.2199 181.753 51.6089V46.5158Z" fill="#FCDAB1"/>
<path d="M192.879 80.3297C193.477 78.6847 194.996 77.5532 196.743 77.4513C198.491 77.3496 200.13 78.2972 200.916 79.8614C209.966 97.8839 225.749 139.922 190.113 161.983L185.902 155.995C185.902 155.995 205.331 127.533 190.39 100.304C188.567 96.9819 188.261 93.0263 189.556 89.4655L192.879 80.3297Z" fill="#FCDAB1"/>
<path d="M185.717 155.938C185.717 155.938 175.276 159.785 174.727 168.028C174.177 176.271 175.276 178.469 176.925 175.721C178.574 172.973 180.222 170.226 183.519 168.028C186.816 165.83 190.113 161.983 190.113 161.983C190.113 161.983 189.564 155.938 185.717 155.938Z" fill="#FCDAB1"/>
<path d="M141.413 140.474C141.413 140.474 133.589 150.527 139.685 151.862C139.685 151.862 145.021 147.753 146.794 143.576C148.566 139.398 143.62 137.129 141.413 140.474Z" fill="#FCDAB1"/>
<path d="M223.893 119.922C223.869 119.922 223.845 119.918 223.821 119.909C223.712 119.87 223.656 119.749 223.697 119.641C227.737 108.723 222.195 97.6023 210.555 80.9016C199.006 64.332 197.868 41.0189 197.857 40.7857C197.852 40.6702 197.942 40.5727 198.057 40.5671C198.057 40.5671 198.064 40.5671 198.067 40.5671C198.178 40.5671 198.271 40.6549 198.276 40.7671C198.286 40.9997 199.42 64.1942 210.898 80.6619C222.619 97.4794 228.193 108.695 224.089 119.786C224.058 119.87 223.978 119.922 223.893 119.922Z" fill="#C86721"/>
<path d="M266.269 155.705L241.304 156.014L250.041 147.79C252.213 145.745 255.528 145.414 258.035 147.04C259.503 147.992 261.095 149.285 262.474 150.996C262.474 150.996 278.047 145.304 285.597 132.571C287.948 136.064 290.697 140.818 293.08 146.732C286.312 150.705 277.539 153.829 266.269 155.705Z" fill="#FABE74"/>
<path d="M233.803 333.745C240.45 334.319 251.985 335.252 261.079 335.653C266.545 335.893 269.692 335.358 271.505 334.632C271.502 334.837 271.496 335.03 271.488 335.209C271.445 336.166 270.667 336.931 269.701 336.986C252.518 337.945 238.852 337.317 233.987 337.021C232.981 336.96 232.381 335.867 232.896 335.009C233.153 334.58 233.465 334.16 233.803 333.745Z" fill="#233F4C"/>
<path d="M261.079 335.652C251.985 335.252 240.45 334.319 233.803 333.745C240.338 325.727 261.079 320.324 261.079 320.324H266.936C270.965 326.132 271.549 331.661 271.505 334.632C269.692 335.358 266.545 335.893 261.079 335.652Z" fill="#325E71"/>
<path d="M267.923 310.76L267.375 321.608C267.315 322.783 266.436 323.77 265.26 323.938C264.089 324.106 262.521 324.127 260.859 323.574C259.837 323.233 259.077 322.372 258.889 321.321L256.994 310.761L267.923 310.76Z" fill="#FABE74"/>
<path d="M335.911 343.069C338.793 342.601 340.098 340.858 340.644 338.995C340.648 339.011 340.652 339.028 340.655 339.045C341.079 341.01 340.096 343.048 338.131 344.017C335.755 345.188 333.158 345.388 331.142 345.291C328.978 345.187 326.993 344.145 325.901 342.477L325.885 342.452C328.056 343.703 331.104 343.85 335.911 343.069Z" fill="#233F4C"/>
<path d="M322.322 314.103H327.153C334.511 313.927 339.132 331.997 340.644 338.994C340.098 340.858 338.793 342.601 335.911 343.069C331.104 343.85 328.056 343.702 325.885 342.451C321.909 336.361 319.939 327.441 318.991 322.235C317.914 316.314 322.322 314.103 322.322 314.103Z" fill="#325E71"/>
<path d="M326.532 304.034L329.214 314.703C329.543 316.011 328.917 317.364 327.708 317.985C326.207 318.755 324.094 319.564 322.152 319.33C321.239 319.22 320.481 318.577 320.179 317.717L316.241 306.492L326.532 304.034Z" fill="#FABE74"/>
<path d="M232.167 163.514C232.167 163.514 256.139 313.361 255.744 314.185C255.744 314.185 262.365 317.194 269.583 314.569C269.583 314.569 267.415 234.464 262.336 203.751C262.336 203.751 303.248 275.348 316.24 311.023C316.24 311.023 323.017 310.215 328.626 306.524C328.626 306.524 284.575 177.652 272.822 160.487L232.167 163.514Z" fill="#5A6F81"/>
<path d="M261.379 203.421C261.589 203.421 261.801 203.365 261.993 203.245C262.535 202.905 262.699 202.19 262.36 201.649L253.402 187.339C253.233 187.069 252.96 186.881 252.648 186.818L246.055 185.49C245.428 185.359 244.817 185.771 244.691 186.398C244.565 187.025 244.971 187.636 245.598 187.762L251.702 188.991L260.396 202.877C260.616 203.229 260.993 203.421 261.379 203.421Z" fill="#4C6071"/>
<path d="M229.716 66.6835C233.749 58.2268 268.56 57.3352 294.063 65.7609C299.43 67.5342 303.778 71.5018 306.018 76.6431C312.917 92.4751 324.086 128.53 293.079 146.732C290.697 140.818 287.947 136.064 285.596 132.571C290.59 124.149 292.069 112.645 283.208 97.6646C276.746 115.111 273.715 140.568 273.082 151.834C272.873 155.543 273.524 159.245 274.979 162.67L275.138 163.043C275.449 163.776 275.021 164.618 274.237 164.794C256.782 168.715 238.627 167.65 233.203 167.202C232.234 167.121 231.43 166.429 231.208 165.493C222.72 129.727 223.644 79.4166 229.716 66.6835Z" fill="#48D8E3"/>
<path d="M267.822 38.0493C267.822 38.0493 269.587 56.7202 271.142 62.2433C271.378 63.0811 271.014 63.9645 270.253 64.3996C267.614 65.9073 261.285 68.3667 252.628 64.1237C251.225 63.4364 250.382 61.9744 250.447 60.4273L251.21 42.385L267.822 38.0493Z" fill="#FABE74"/>
<path d="M250.829 14.1631C250.829 14.1631 245.181 27.1374 244.802 33.9473C244.423 40.7573 242.955 45.1761 250.829 46.5472C258.703 47.9185 265.336 43.996 268.93 37.2126C268.93 37.2126 274.561 26.7602 273.297 22.4794C272.034 18.1987 250.829 14.1631 250.829 14.1631Z" fill="#FABE74"/>
<path d="M266.24 32.3355L265.791 32.138C265.221 31.8864 264.977 31.2073 265.263 30.6533C266.374 28.508 268.538 23.5918 265.742 22.4449C262.138 20.9669 247.863 18.0559 244.783 12.9906C241.823 8.12251 244.446 1.83851 248.388 0.0512469C248.651 -0.0683721 248.962 0.0265228 249.098 0.282634L249.426 0.904113C249.651 1.32963 250.279 1.26515 250.413 0.802879C250.542 0.359153 251.132 0.273106 251.377 0.664874C252.323 2.18016 254.879 4.63703 261.714 5.89838C271.428 7.69116 277.85 11.6222 278.01 18.3347C278.021 18.7613 278.474 18.9983 278.838 18.7763C279.556 18.3393 280.703 18.1341 282.237 19.424C284.905 21.6672 283.813 27.4861 277.965 32.2725C277.687 32.4997 277.69 32.9336 277.99 33.1294C279.051 33.8195 280.631 35.4618 276.536 37.6509C272.3 39.9153 269.137 39.7295 267.919 39.5283C267.616 39.4784 267.421 39.185 267.487 38.8851L268.787 32.9856C268.86 32.6516 268.606 32.3353 268.264 32.3353L266.24 32.3355Z" fill="#804820"/>
<path d="M265.995 33.5804C265.995 33.5804 268.15 25.2926 271.866 27.6163C275.581 29.94 269.937 36.9025 266.95 37.2127L265.995 33.5804Z" fill="#FABE74"/>
<path d="M276.725 145.652C276.725 145.652 274.601 142.112 269.645 142.112C264.689 142.112 259.024 151.316 259.024 151.316C259.024 151.316 266.813 154.856 269.645 157.688C272.477 160.52 276.725 151.316 276.725 145.652Z" fill="#FABE74"/>
<path d="M12.7725 319.988L31.9109 320.655C33.2065 320.7 34.2643 319.628 34.2027 318.334L33.3037 299.454C33.2474 298.272 32.2726 297.343 31.0891 297.343H12.8497C11.6251 297.343 10.6326 298.335 10.6326 299.56V317.772C10.6327 318.967 11.579 319.946 12.7725 319.988Z" fill="#30979E"/>
<path d="M72.3321 282.906C72.3321 282.906 53.2128 302.805 41.1167 282.906L37.605 288.368C37.605 288.368 51.6518 317.243 82.0867 291.88L72.3321 282.906Z" fill="#FFCF8C"/>
<path d="M81.3965 270.045C83.7268 268.442 86.3031 267.234 89.0346 266.491C90.0606 266.212 95.5999 267.822 99.0243 267.743C103.725 267.635 108.509 265.496 112.384 266.462C116.233 267.421 119.383 268.673 121.202 269.967C126.646 273.839 129.842 281.059 131.79 288.211C128.102 291.997 123.46 293.68 123.46 293.68L122.602 328.443L101.597 334.801L78.5845 327.181L79.425 293.209C79.425 293.209 69.7575 284.948 69.2109 283.686C68.6639 282.424 74.8233 274.564 81.3965 270.045Z" fill="#4CABA9"/>
<path d="M143.161 333.57C138.003 332.386 126.08 333.023 126.08 333.023L125.595 334.336L124.792 340.864C124.792 340.864 136.146 342.911 141.743 342.906C142.314 342.905 142.836 342.82 143.313 342.671C143.484 342.518 143.651 342.359 143.809 342.187C146.183 339.593 145.497 335.784 143.161 333.57Z" fill="#165469"/>
<path d="M143.673 333.7C143.511 333.654 143.34 333.611 143.161 333.57C145.497 335.784 146.183 339.593 143.809 342.187C143.651 342.359 143.484 342.518 143.314 342.671C147.512 341.364 148.009 334.92 143.673 333.7Z" fill="#103542"/>
<path d="M122.654 332.656L124.673 332.742C125.758 332.788 126.78 333.316 127.509 334.208C128.238 335.1 128.614 336.279 128.55 337.481C128.499 338.439 128.106 339.336 127.457 339.971C126.809 340.607 125.959 340.93 125.095 340.869L122.006 340.649L122.654 332.656Z" fill="#FFCF8C"/>
<path d="M54.7669 332.943C59.9531 331.917 71.8555 332.919 71.8555 332.919L72.3074 334.247L72.9475 340.797C72.9475 340.797 61.5462 342.494 55.9515 342.318C55.3807 342.3 54.8608 342.198 54.3876 342.035C54.2209 341.877 54.0582 341.713 53.9048 341.536C51.596 338.871 52.3765 335.083 54.7669 332.943Z" fill="#165469"/>
<path d="M54.2528 333.056C54.4155 333.016 54.5876 332.978 54.767 332.942C52.3766 335.083 51.5961 338.87 53.905 341.536C54.0583 341.713 54.2211 341.877 54.3878 342.035C50.2235 340.6 49.8872 334.143 54.2528 333.056Z" fill="#103542"/>
<path d="M75.2896 332.657L73.2693 332.681C72.1838 332.694 71.1488 333.191 70.3975 334.06C69.6462 334.929 69.2419 336.097 69.2756 337.3C69.3025 338.259 69.6732 339.167 70.3056 339.823C70.9379 340.478 71.7798 340.827 72.6447 340.792L75.738 340.667L75.2896 332.657Z" fill="#FFCF8C"/>
<path d="M144.604 313.107C142.265 307.722 136.543 306.848 131.673 309.366C131.588 309.477 100.746 325.284 73.5464 332.212C74.3251 334.708 74.7253 337.365 74.8127 339.976C74.8284 340.557 74.8187 341.131 74.7847 341.697C95.6426 340.626 118.28 333.669 137.732 327.556C143.764 325.611 147.197 319.074 144.604 313.107Z" fill="#5BB7BD"/>
<path d="M122.802 340.384C122.721 337.375 123.306 334.573 124.557 331.98C124.593 331.861 124.636 331.747 124.674 331.63C123.121 331.149 121.114 330.497 118.478 329.603C99.164 322.993 84.4297 316.319 70.3671 308.636C64.904 305.651 58.6925 307.652 56.9437 314.116C55.3825 319.887 58.8108 324.813 64.0139 326.545C79.5806 331.725 71.4754 330.286 76.5594 331.922C90.2126 336.144 107.203 339.99 122.835 341.04C122.823 340.821 122.81 340.602 122.802 340.384Z" fill="#3BC7D1"/>
<path d="M89.0344 266.491C89.0344 266.491 91.1115 275.493 101.196 275.306C111.468 275.119 112.384 266.462 112.384 266.462L105.674 265.026L105.113 257.55L95.0204 258.297L94.8334 265.4L89.0344 266.491Z" fill="#FFCF8C"/>
<path fill-rule="evenodd" clip-rule="evenodd" d="M82.0004 247.325C82.0004 247.325 77.8754 243.086 80.9759 239.715C80.9759 239.715 77.9223 235.86 80.9444 231.939C80.9444 231.939 83.6041 216.925 98.6164 223.803C98.6164 223.803 108.736 218.297 115.473 230.705C115.473 230.705 119.579 231.897 119.129 237.175C119.129 237.175 124.016 255.333 106.064 252.741L82.0004 247.325Z" fill="#D09236"/>
<path fill-rule="evenodd" clip-rule="evenodd" d="M84.8442 234.781C84.8442 234.781 72.8554 257.053 87.6703 262.777C102.485 268.502 108.401 252.839 108.401 252.839C108.401 252.839 113.898 245.485 111.135 240.707C108.372 235.929 88.0908 231.564 84.8442 234.781Z" fill="#FFCF8C"/>
<path fill-rule="evenodd" clip-rule="evenodd" d="M81.6883 245.487C81.6883 245.487 82.2974 242.697 79.8242 242.526C77.3509 242.355 80.5498 249.156 80.5498 249.156L81.6883 245.487Z" fill="#FFCF8C"/>
<path fill-rule="evenodd" clip-rule="evenodd" d="M109.397 249.156C109.397 249.156 94.3788 246.411 94.5354 237.727C94.5354 237.727 92.0653 238.293 90.9254 235.444C90.9254 235.444 84.6454 242.715 82.2143 238.493C82.2143 238.493 82.0592 227.298 91.1688 229.781C100.278 232.263 108.646 234.901 111.286 237.154C113.925 239.407 116.628 245.327 109.397 249.156Z" fill="#D09236"/>
<path fill-rule="evenodd" clip-rule="evenodd" d="M106.758 255.063L108.431 247.687C108.431 247.687 113.1 244.783 112.932 248.701C112.765 252.62 108.579 255.303 106.758 255.063Z" fill="#FFCF8C"/>
<path d="M131.31 288.325C131.31 288.325 139.055 319.584 115.253 328.558C110.526 327.93 107.839 325.827 107.839 325.827C107.839 325.827 123.59 314.976 122.539 293.623C125.274 291.373 131.31 288.325 131.31 288.325Z" fill="#FFCF8C"/>
<path d="M114.082 330.509C114.082 330.509 106.669 328.948 103.547 328.558C100.426 328.168 96.2275 327.426 98.1315 322.919C100.036 318.413 102.767 319.194 106.279 321.145C107.893 322.041 116.424 327.778 114.082 330.509Z" fill="#FFCF8C"/>
<path d="M21.6148 306.388L39.1291 306.998C40.3147 307.039 41.2829 306.059 41.2264 304.874L40.4036 287.597C40.3522 286.515 39.46 285.664 38.377 285.664H21.6853C20.5648 285.664 19.6562 286.573 19.6562 287.693V304.36C19.6564 305.453 20.5223 306.35 21.6148 306.388Z" fill="#5EE2F9"/>
<path d="M26.3088 288.315C26.6349 286.737 27.7035 281.205 30.5479 280.106C36.4345 277.833 41.309 283.264 41.309 283.264L42.2873 287.684C42.1378 287.431 41.8813 287.217 41.5504 287.036C40.7956 289.939 38.4132 292.75 37.2149 292.27C35.2639 291.49 35.6541 291.49 37.6051 288.368C37.6105 288.36 37.6156 288.352 37.6208 288.343C38.1748 287.442 37.4553 286.278 36.3999 286.346C33.8522 286.511 31.3595 287.219 30.8742 288.315C29.8957 290.526 25.9825 289.894 26.3088 288.315Z" fill="#FFCF8C"/>
<path d="M26.8194 342.229L45.9578 342.895C47.2533 342.941 48.3112 341.869 48.2496 340.574L47.3506 321.695C47.2943 320.513 46.3195 319.583 45.136 319.583H26.8966C25.6721 319.583 24.6794 320.576 24.6794 321.8V340.013C24.6796 341.207 25.6259 342.187 26.8194 342.229Z" fill="#5EE2F9"/>
<path d="M2.35191 342.328L21.4961 342.796C22.7922 342.828 23.8387 341.746 23.7637 340.451L22.6688 321.583C22.6003 320.401 21.6157 319.482 20.4324 319.494L2.19402 319.684C0.969596 319.696 -0.0125753 320.699 0.00012173 321.924L0.189233 340.135C0.201429 341.329 1.15789 342.299 2.35191 342.328Z" fill="#48D8E3"/>
</svg>
